REM DIRINDEX 1\2,1\3
REM DIRNAME cjc039,folder01,folder02
TITLE ""
FILE "2961-2980.mp3" MP3
  TRACK 01 AUDIO
    TITLE "0:"
    INDEX 01 00:00:00
  TRACK 02 AUDIO
    TITLE "2:cjc039_4921"
    INDEX 01 00:00:27
  TRACK 03 AUDIO
    TITLE "0:"
    INDEX 01 00:01:36
  TRACK 04 AUDIO
    TITLE "3:cjc039_4922"
    INDEX 01 00:02:16
  TRACK 05 AUDIO
    TITLE "0:"
    INDEX 01 00:05:59
  TRACK 06 AUDIO
    TITLE "2:cjc039_4923"
    INDEX 01 00:07:39
  TRACK 07 AUDIO
    TITLE "0:"
    INDEX 01 00:08:72
  TRACK 08 AUDIO
    TITLE "3:cjc039_4924"
    INDEX 01 00:09:47
  TRACK 09 AUDIO
    TITLE "0:"
    INDEX 01 00:13:08
  TRACK 10 AUDIO
    TITLE "2:cjc039_4925"
    INDEX 01 00:14:54
  TRACK 11 AUDIO
    TITLE "0:"
    INDEX 01 00:16:08
  TRACK 12 AUDIO
    TITLE "3:cjc039_4926"
    INDEX 01 00:16:63
  TRACK 13 AUDIO
    TITLE "0:"
    INDEX 01 00:19:65
  TRACK 14 AUDIO
    TITLE "2:cjc039_4927"
    INDEX 01 00:21:41
  TRACK 15 AUDIO
    TITLE "0:"
    INDEX 01 00:22:62
  TRACK 16 AUDIO
    TITLE "3:cjc039_4928"
    INDEX 01 00:23:34
  TRACK 17 AUDIO
    TITLE "0:"
    INDEX 01 00:26:52
  TRACK 18 AUDIO
    TITLE "2:cjc039_4929"
    INDEX 01 00:28:31
  TRACK 19 AUDIO
    TITLE "0:"
    INDEX 01 00:29:33
  TRACK 20 AUDIO
    TITLE "3:cjc039_4930"
    INDEX 01 00:30:14
  TRACK 21 AUDIO
    TITLE "0:"
    INDEX 01 00:32:72
  TRACK 22 AUDIO
    TITLE "2:cjc039_4931"
    INDEX 01 00:34:42
  TRACK 23 AUDIO
    TITLE "0:"
    INDEX 01 00:35:57
  TRACK 24 AUDIO
    TITLE "3:cjc039_4932"
    INDEX 01 00:36:33
  TRACK 25 AUDIO
    TITLE "0:"
    INDEX 01 00:40:17
  TRACK 26 AUDIO
    TITLE "2:cjc039_4933"
    INDEX 01 00:41:71
  TRACK 27 AUDIO
    TITLE "0:"
    INDEX 01 00:42:70
  TRACK 28 AUDIO
    TITLE "3:cjc039_4934"
    INDEX 01 00:43:52
  TRACK 29 AUDIO
    TITLE "0:"
    INDEX 01 00:46:62
  TRACK 30 AUDIO
    TITLE "2:cjc039_4935"
    INDEX 01 00:48:34
  TRACK 31 AUDIO
    TITLE "0:"
    INDEX 01 00:49:33
  TRACK 32 AUDIO
    TITLE "3:cjc039_4936"
    INDEX 01 00:50:15
  TRACK 33 AUDIO
    TITLE "0:"
    INDEX 01 00:52:63
  TRACK 34 AUDIO
    TITLE "2:cjc039_4937"
    INDEX 01 00:54:36
  TRACK 35 AUDIO
    TITLE "0:"
    INDEX 01 00:56:00
  TRACK 36 AUDIO
    TITLE "3:cjc039_4938"
    INDEX 01 00:56:51
  TRACK 37 AUDIO
    TITLE "0:"
    INDEX 01 01:00:51
  TRACK 38 AUDIO
    TITLE "2:cjc039_4939"
    INDEX 01 01:02:30
  TRACK 39 AUDIO
    TITLE "0:"
    INDEX 01 01:03:71
  TRACK 40 AUDIO
    TITLE "3:cjc039_4940"
    INDEX 01 01:04:48
  TRACK 41 AUDIO
    TITLE "0:"
    INDEX 01 01:08:40
  TRACK 42 AUDIO
    TITLE "2:cjc039_4941"
    INDEX 01 01:10:18
  TRACK 43 AUDIO
    TITLE "0:"
    INDEX 01 01:11:31
  TRACK 44 AUDIO
    TITLE "3:cjc039_4942"
    INDEX 01 01:12:03
  TRACK 45 AUDIO
    TITLE "0:"
    INDEX 01 01:14:53
  TRACK 46 AUDIO
    TITLE "2:cjc039_4943"
    INDEX 01 01:16:32
  TRACK 47 AUDIO
    TITLE "0:"
    INDEX 01 01:17:53
  TRACK 48 AUDIO
    TITLE "3:cjc039_4944"
    INDEX 01 01:18:23
  TRACK 49 AUDIO
    TITLE "0:"
    INDEX 01 01:21:29
  TRACK 50 AUDIO
    TITLE "2:cjc039_4945"
    INDEX 01 01:23:01
  TRACK 51 AUDIO
    TITLE "0:"
    INDEX 01 01:24:12
  TRACK 52 AUDIO
    TITLE "3:cjc039_4946"
    INDEX 01 01:24:63
  TRACK 53 AUDIO
    TITLE "0:"
    INDEX 01 01:27:63
  TRACK 54 AUDIO
    TITLE "2:cjc039_4947"
    INDEX 01 01:29:39
  TRACK 55 AUDIO
    TITLE "0:"
    INDEX 01 01:31:24
  TRACK 56 AUDIO
    TITLE "3:cjc039_4948"
    INDEX 01 01:31:69
  TRACK 57 AUDIO
    TITLE "0:"
    INDEX 01 01:35:14
  TRACK 58 AUDIO
    TITLE "2:cjc039_4949"
    INDEX 01 01:36:66
  TRACK 59 AUDIO
    TITLE "0:"
    INDEX 01 01:37:71
  TRACK 60 AUDIO
    TITLE "3:cjc039_4950"
    INDEX 01 01:38:49
  TRACK 61 AUDIO
    TITLE "0:"
    INDEX 01 01:41:50
  TRACK 62 AUDIO
    TITLE "2:cjc039_4951"
    INDEX 01 01:43:23
  TRACK 63 AUDIO
    TITLE "0:"
    INDEX 01 01:44:42
  TRACK 64 AUDIO
    TITLE "3:cjc039_4952"
    INDEX 01 01:45:06
  TRACK 65 AUDIO
    TITLE "0:"
    INDEX 01 01:48:65
  TRACK 66 AUDIO
    TITLE "2:cjc039_4953"
    INDEX 01 01:50:37
  TRACK 67 AUDIO
    TITLE "0:"
    INDEX 01 01:51:66
  TRACK 68 AUDIO
    TITLE "3:cjc039_4954"
    INDEX 01 01:52:44
  TRACK 69 AUDIO
    TITLE "0:"
    INDEX 01 01:55:48
  TRACK 70 AUDIO
    TITLE "2:cjc039_4955"
    INDEX 01 01:57:25
  TRACK 71 AUDIO
    TITLE "0:"
    INDEX 01 01:58:62
  TRACK 72 AUDIO
    TITLE "3:cjc039_4956"
    INDEX 01 01:59:36
  TRACK 73 AUDIO
    TITLE "0:"
    INDEX 01 02:02:36
  TRACK 74 AUDIO
    TITLE "2:cjc039_4957"
    INDEX 01 02:04:17
  TRACK 75 AUDIO
    TITLE "0:"
    INDEX 01 02:05:33
  TRACK 76 AUDIO
    TITLE "3:cjc039_4958"
    INDEX 01 02:06:16
  TRACK 77 AUDIO
    TITLE "0:"
    INDEX 01 02:09:62
  TRACK 78 AUDIO
    TITLE "2:cjc039_4959"
    INDEX 01 02:11:41
  TRACK 79 AUDIO
    TITLE "0:"
    INDEX 01 02:12:68
  TRACK 80 AUDIO
    TITLE "3:cjc039_4960"
    INDEX 01 02:13:46
  TRACK 81 AUDIO
    TITLE "0:"
    INDEX 01 02:17:28
